<svg width="66" height="31" viewBox="0 0 66 31" fill="none" xmlns="http://www.w3.org/2000/svg">
<g clip-path="url(#clip0_1_169)">
<path d="M66.0029 14.5136C66.0029 19.5168 61.9885 23.5698 57.0376 23.5698C52.0867 23.5698 48.0723 19.5168 48.0723 14.5136C48.0723 9.51038 52.0804 5.45745 57.0313 5.45745C61.9822 5.45745 66.0029 9.51038 66.0029 14.5136Z" fill="#F79F1A"/>
<path d="M54.9337 14.5136C54.9337 19.5168 50.9193 23.5698 45.9684 23.5698C41.0175 23.5698 37.0031 19.5168 37.0031 14.5136C37.0031 9.51038 41.0175 5.45745 45.9684 5.45745C50.9193 5.45745 54.9337 9.51038 54.9337 14.5136Z" fill="#EA001B"/>
<path d="M51.4998 7.38322C49.4083 9.03838 48.066 11.6187 48.066 14.5136C48.066 17.4086 49.4083 19.9888 51.4998 21.644C53.5913 19.9888 54.9336 17.4086 54.9336 14.5136C54.9336 11.6187 53.5913 9.04467 51.4998 7.38322Z" fill="#FF5F01"/>
<path d="M65.9808 19.3227V19.0029H65.9014L65.8063 19.2268L65.7111 18.9949H65.6238V19.3147H65.6794V19.0749L65.7666 19.2828H65.8301L65.9252 19.0749V19.3227H65.9808ZM65.4493 19.3227V19.0509H65.5604V18.9949H65.2907V19.0509H65.4018V19.3227H65.4493Z" fill="#F79F1A"/>
</g>
<path d="M23.26 11.138C22.744 10.9495 21.94 10.7493 20.94 10.7493C18.38 10.7493 16.5733 11.9996 16.56 13.7911C16.544 15.1086 17.8453 15.85 18.828 16.2918C19.8373 16.7439 20.1747 17.028 20.172 17.4349C20.1653 18.051 19.3653 18.33 18.6227 18.33C17.6013 18.33 17.0413 18.1918 16.1813 17.8457L15.8627 17.7023L15.5013 19.7664C16.1227 20.0183 17.2427 20.234 18.4013 20.2508C21.1227 20.2508 22.9013 19.0095 22.9227 17.1004C22.944 16.0503 22.2427 15.2533 20.7613 14.5971C19.8627 14.1709 19.3027 13.8854 19.3027 13.4527C19.3027 13.0704 19.7813 12.6622 20.7813 12.6622C21.6413 12.6493 22.2427 12.8288 22.7213 13.0148L22.9613 13.1195L23.3227 11.1251L23.26 11.138ZM29.904 10.9185H27.904C27.2813 10.9185 26.816 11.0825 26.5427 11.6818L22.696 20.1216H25.4173L25.9613 18.7395L29.2813 18.7421C29.3627 19.065 29.6013 20.1216 29.6013 20.1216H32L29.904 10.9185ZM12.88 10.841H15.4707L13.8507 20.0493H11.2587L12.88 10.8384V10.841ZM6.29467 15.9159L6.564 17.1947L9.09867 10.9185H11.844L7.76267 20.1087H5.024L2.784 12.3251C2.73733 12.192 2.68 12.1016 2.544 12.019C1.78667 11.6353 0.94 11.3228 0 11.1058L0.0333333 10.912H4.208C4.77333 10.9327 5.22933 11.1058 5.38533 11.6922L6.29467 15.9198V15.9159ZM26.7053 16.855L27.7387 14.2794C27.7253 14.3052 27.952 13.7472 28.0827 13.401L28.26 14.1954L28.8587 16.8524H26.7053V16.855Z" fill="black"/>
<defs>
<clipPath id="clip0_1_169">
<rect width="29" height="19" fill="white" transform="translate(37 5)"/>
</clipPath>
</defs>
</svg>
